<svg xmlns="http://www.w3.org/2000/svg" viewBox="0 0 24 24" aria-labelledby="fireworkTitle fireworkDesc" role="img">
    <title id="fireworkTitle">Firework Burst</title>
    <desc id="fireworkDesc">An exploding firework with radiating sparks and glowing center, symbolizing celebration and joy</desc>

    <defs>
        <!-- Enhanced radial gradient with more vibrance -->
        <radialGradient id="fireworkGlow" cx="50%" cy="50%" r="55%">
            <stop offset="0%" style="stop-color:currentColor;stop-opacity:1"/>
            <stop offset="40%" style="stop-color:currentColor;stop-opacity:0.8"/>
            <stop offset="70%" style="stop-color:currentColor;stop-opacity:0.4"/>
            <stop offset="100%" style="stop-color:currentColor;stop-opacity:0"/>
        </radialGradient>

        <!-- Secondary glow for depth -->
        <radialGradient id="innerGlow" cx="50%" cy="50%" r="40%">
            <stop offset="0%" style="stop-color:#ffffff;stop-opacity:0.9"/>
            <stop offset="50%" style="stop-color:currentColor;stop-opacity:0.7"/>
            <stop offset="100%" style="stop-color:currentColor;stop-opacity:0.3"/>
        </radialGradient>

        <!-- Glow filter for sparkle effect -->
        <filter id="sparkleGlow" x="-100%" y="-100%" width="300%" height="300%">
            <feGaussianBlur in="SourceGraphic" stdDeviation="1.5" result="blur"/>
            <feComponentTransfer in="blur" result="glow">
                <feFuncA type="linear" slope="2"/>
            </feComponentTransfer>
            <feMerge>
                <feMergeNode in="glow"/>
                <feMergeNode in="glow"/>
                <feMergeNode in="SourceGraphic"/>
            </feMerge>
        </filter>

        <!-- Pulse animation for dynamic effect -->
        <style>
            @keyframes pulse{0%,to{transform:scale(1);opacity:0.9}50%{transform:scale(1.1);opacity:1}}
        </style>
    </defs>

    <!-- Outer glow halo -->
    <circle cx="12" cy="12" r="11" fill="url(#fireworkGlow)" opacity="0.6"/>

    <!-- Main burst pattern with enhanced detail -->
    <g filter="url(#sparkleGlow)" style="animation:pulse 1.5s ease-in-out infinite">
        <!-- Primary 8-point burst -->
        <path fill="currentColor" stroke="currentColor" stroke-linejoin="round" stroke-width="0.6"
              d="m12 2 1.3 7 6-3.2-3.2 6 7 1.3-7 1.3 3.2 6-6-3.2L12 22l-1.3-7-6 3.2 3.2-6L1 11l7-1.3-3.2-6 6 3.2Z"
              opacity="0.95"/>

        <!-- Secondary inner burst for depth -->
        <path fill="currentColor" d="m12 4 1.2 6.8 6-1.2-6 1.2 1.2 6.8-1.2-6.8-6 1.2 6-1.2Z" opacity="0.8"/>

        <!-- Tertiary sparkle rays -->
        <path fill="currentColor" stroke="currentColor" stroke-width="0.4"
              d="m12 5 0.8 5.5 4.5-1.5-4 2 1.5 4.5-2-4-4.5 1.5 5-0.8-0.8 5.5 0.8-5.5 4.5 1.5-5-0.8Z"
              opacity="0.6"/>
    </g>

    <!-- Radiating light beams -->
    <g fill="currentColor" opacity="0.5">
        <ellipse cx="12" cy="7" rx="1.2" ry="3.5"/>
        <ellipse cx="17" cy="12" rx="3.5" ry="1.2"/>
        <ellipse cx="12" cy="17" rx="1.2" ry="3.5"/>
        <ellipse cx="7" cy="12" rx="3.5" ry="1.2"/>
    </g>

    <!-- Diagonal light beams -->
    <g fill="currentColor" opacity="0.4" transform="rotate(45 12 12)">
        <ellipse cx="12" cy="8" rx="1" ry="3"/>
        <ellipse cx="16" cy="12" rx="3" ry="1"/>
        <ellipse cx="12" cy="16" rx="1" ry="3"/>
        <ellipse cx="8" cy="12" rx="3" ry="1"/>
    </g>

    <!-- Central core with multi-layer glow -->
    <circle cx="12" cy="12" r="3" fill="url(#innerGlow)" opacity="0.9"/>
    <circle cx="12" cy="12" r="2.2" fill="#fff" opacity="0.85"/>
    <circle cx="12" cy="12" r="1.3" fill="currentColor" opacity="0.7"/>

    <!-- Sparkle tips at burst endpoints -->
    <g fill="#fff" opacity="0.9">
        <circle cx="12" cy="2" r="0.9"/>
        <circle cx="22" cy="12" r="0.9"/>
        <circle cx="12" cy="22" r="0.9"/>
        <circle cx="2" cy="12" r="0.9"/>
        <circle cx="17.5" cy="6.5" r="0.7"/>
        <circle cx="17.5" cy="17.5" r="0.7"/>
        <circle cx="6.5" cy="17.5" r="0.7"/>
        <circle cx="6.5" cy="6.5" r="0.7"/>
    </g>

    <!-- Trailing spark particles -->
    <g fill="currentColor" opacity="0.6">
        <circle cx="12" cy="4" r="0.5"/>
        <circle cx="20" cy="12" r="0.5"/>
        <circle cx="12" cy="20" r="0.5"/>
        <circle cx="4" cy="12" r="0.5"/>
        <circle cx="16" cy="8" r="0.4"/>
        <circle cx="16" cy="16" r="0.4"/>
        <circle cx="8" cy="16" r="0.4"/>
        <circle cx="8" cy="8" r="0.4"/>
    </g>
</svg>
