<svg xmlns="http://www.w3.org/2000/svg" viewBox="0 0 24 24">
  <defs>
    <!-- Star burst shape for firework particles -->
    <radialGradient id="firework-glow" cx="50%" cy="50%" r="50%">
      <stop offset="0%" style="stop-color:currentColor;stop-opacity:1" />
      <stop offset="70%" style="stop-color:currentColor;stop-opacity:0.6" />
      <stop offset="100%" style="stop-color:currentColor;stop-opacity:0" />
    </radialGradient>
  </defs>

  <!-- 8-point star burst -->
  <g id="firework-particle">
    <!-- Center glow -->
    <circle cx="12" cy="12" r="10" fill="url(#firework-glow)" opacity="0.5"/>

    <!-- Star burst shape -->
    <path d="M12 2 L13.09 8.26 L18.54 5.46 L15.73 10.91 L22 12 L15.73 13.09 L18.54 18.54 L13.09 15.73 L12 22 L10.91 15.73 L5.46 18.54 L8.27 13.09 L2 12 L8.27 10.91 L5.46 5.46 L10.91 8.26 Z"
          fill="currentColor"
          stroke="currentColor"
          stroke-width="0.5"
          stroke-linejoin="round"/>

    <!-- Inner highlight -->
    <circle cx="12" cy="12" r="2" fill="white" opacity="0.8"/>
  </g>

  <!-- Alternate: Simple 4-point star -->
  <g id="firework-simple">
    <path d="M12 4 L13 11 L20 12 L13 13 L12 20 L11 13 L4 12 L11 11 Z"
          fill="currentColor"/>
  </g>

  <!-- Trail particle (for launch effect) -->
  <g id="firework-trail">
    <ellipse cx="12" cy="12" rx="2" ry="6" fill="currentColor" opacity="0.7">
      <animateTransform
        attributeName="transform"
        attributeType="XML"
        type="scale"
        from="1 1"
        to="0.5 0.3"
        dur="0.5s"
        repeatCount="indefinite"/>
    </ellipse>
  </g>
</svg>
