<svg xmlns="http://www.w3.org/2000/svg" viewBox="0 0 24 24">
    <defs>
        <radialGradient id="a" cx="50%" cy="50%" r="50%">
            <stop offset="0%" style="stop-color:currentColor;stop-opacity:1"/>
            <stop offset="70%" style="stop-color:currentColor;stop-opacity:.6"/>
            <stop offset="100%" style="stop-color:currentColor;stop-opacity:0"/>
        </radialGradient>
    </defs>
    <circle cx="12" cy="12" r="10" fill="url(#a)" opacity=".5"/>
    <path fill="currentColor" stroke="currentColor" stroke-linejoin="round" stroke-width=".5" d="m12 2 1.09 6.26 5.45-2.8-2.81 5.45L22 12l-6.27 1.09 2.81 5.45-5.45-2.81L12 22l-1.09-6.27-5.45 2.81 2.81-5.45L2 12l6.27-1.09-2.81-5.45 5.45 2.8Z"/>
    <circle cx="12" cy="12" r="2" fill="#fff" opacity=".8"/>
    <path fill="currentColor" d="m12 4 1 7 7 1-7 1-1 7-1-7-7-1 7-1Z"/>
    <ellipse cx="12" cy="12" fill="currentColor" opacity=".7" rx="2" ry="6">
        <animateTransform attributeName="transform" attributeType="XML" dur="0.5s" from="1 1" repeatCount="indefinite" to="0.5 0.3" type="scale"/>
    </ellipse>
</svg>
