<svg xmlns="http://www.w3.org/2000/svg" width="200" height="200" viewBox="0 0 200 200">
    <defs>
        <path id="a" fill="none" stroke="orange" stroke-width="2" d="M0-40q-10 15-8 25L0 0l8-15q2-10-8-25Z"/>
    </defs>
    <circle cx="100" cy="100" r="8" fill="#dc143c" stroke="orange" stroke-width="2"/>
    <g transform="translate(100 100)">
        <use href="#a"/>
        <use href="#a" transform="rotate(45)"/>
        <use href="#a" transform="rotate(90)"/>
        <use href="#a" transform="rotate(135)"/>
        <use href="#a" transform="rotate(180)"/>
        <use href="#a" transform="rotate(225)"/>
        <use href="#a" transform="rotate(270)"/>
        <use href="#a" transform="rotate(315)"/>
    </g>
    <circle cx="100" cy="100" r="50" fill="none" stroke="#fff" stroke-width="3"/>
    <g transform="matrix(1.5 0 0 1.5 100 100)">
        <use href="#a"/>
        <use href="#a" transform="rotate(22.5)"/>
        <use href="#a" transform="rotate(45)"/>
        <use href="#a" transform="rotate(67.5)"/>
        <use href="#a" transform="rotate(90)"/>
        <use href="#a" transform="rotate(112.5)"/>
        <use href="#a" transform="rotate(135)"/>
        <use href="#a" transform="rotate(157.5)"/>
        <use href="#a" transform="rotate(180)"/>
        <use href="#a" transform="rotate(202.5)"/>
        <use href="#a" transform="rotate(225)"/>
        <use href="#a" transform="rotate(247.5)"/>
        <use href="#a" transform="rotate(270)"/>
        <use href="#a" transform="rotate(292.5)"/>
        <use href="#a" transform="rotate(315)"/>
        <use href="#a" transform="rotate(337.5)"/>
    </g>
    <circle cx="100" cy="100" r="85" fill="none" stroke="orange" stroke-width="2"/>
    <g fill="#dc143c">
        <circle cx="100" cy="15" r="3"/>
        <circle cx="147" cy="29" r="3"/>
        <circle cx="171" cy="53" r="3"/>
        <circle cx="185" cy="100" r="3"/>
        <circle cx="171" cy="147" r="3"/>
        <circle cx="147" cy="171" r="3"/>
        <circle cx="100" cy="185" r="3"/>
        <circle cx="53" cy="171" r="3"/>
        <circle cx="29" cy="147" r="3"/>
        <circle cx="15" cy="100" r="3"/>
        <circle cx="29" cy="53" r="3"/>
        <circle cx="53" cy="29" r="3"/>
    </g>
</svg>
