<svg xmlns="http://www.w3.org/2000/svg" width="200" height="200" viewBox="0 0 200 200" aria-labelledby="rangoliTitle rangoliDesc" role="img">
    <title id="rangoliTitle">Rangoli Pattern</title>
    <desc id="rangoliDesc">Traditional Indian decorative art pattern with geometric symmetry and vibrant colors</desc>

    <defs>
        <!-- Enhanced gradients for depth -->
        <radialGradient id="centerGlow" cx="50%" cy="50%" r="50%">
            <stop offset="0%" style="stop-color:#ff1744;stop-opacity:1"/>
            <stop offset="50%" style="stop-color:#dc143c;stop-opacity:1"/>
            <stop offset="100%" style="stop-color:#b71c1c;stop-opacity:1"/>
        </radialGradient>

        <radialGradient id="petalGradient" cx="30%" cy="30%" r="70%">
            <stop offset="0%" style="stop-color:#ffb74d;stop-opacity:1"/>
            <stop offset="50%" style="stop-color:#ff9800;stop-opacity:1"/>
            <stop offset="100%" style="stop-color:#f57c00;stop-opacity:1"/>
        </radialGradient>

        <linearGradient id="outerRingGradient" x1="0%" y1="0%" x2="100%" y2="100%">
            <stop offset="0%" style="stop-color:#ffd54f;stop-opacity:1"/>
            <stop offset="50%" style="stop-color:#ffb300;stop-opacity:1"/>
            <stop offset="100%" style="stop-color:#ff6f00;stop-opacity:1"/>
        </linearGradient>

        <!-- Petal path definition -->
        <path id="petalPath" fill="none" stroke="url(#petalGradient)" stroke-width="2.5" stroke-linecap="round" d="M0-40q-10 15-8 25L0 0l8-15q2-10-8-25Z"/>

        <!-- Shadow filter -->
        <filter id="softShadow" x="-50%" y="-50%" width="200%" height="200%">
            <feGaussianBlur in="SourceAlpha" stdDeviation="2" result="blur"/>
            <feOffset in="blur" dx="1" dy="1" result="offsetBlur"/>
            <feComponentTransfer in="offsetBlur" result="shadow">
                <feFuncA type="linear" slope="0.3"/>
            </feComponentTransfer>
            <feMerge>
                <feMergeNode in="shadow"/>
                <feMergeNode in="SourceGraphic"/>
            </feMerge>
        </filter>

        <!-- Glow effect for center -->
        <filter id="centerGlowFilter" x="-50%" y="-50%" width="200%" height="200%">
            <feGaussianBlur stdDeviation="3" result="coloredBlur"/>
            <feMerge>
                <feMergeNode in="coloredBlur"/>
                <feMergeNode in="coloredBlur"/>
                <feMergeNode in="SourceGraphic"/>
            </feMerge>
        </filter>
    </defs>

    <!-- Outer decorative circle with gradient -->
    <circle cx="100" cy="100" r="90" fill="none" stroke="url(#outerRingGradient)" stroke-width="3" opacity="0.6" filter="url(#softShadow)"/>

    <!-- Second outer circle -->
    <circle cx="100" cy="100" r="85" fill="none" stroke="#ff9800" stroke-width="2.5" opacity="0.8"/>

    <!-- Middle decorative circles -->
    <circle cx="100" cy="100" r="55" fill="none" stroke="#fff" stroke-width="4" opacity="0.9" filter="url(#softShadow)"/>
    <circle cx="100" cy="100" r="52" fill="none" stroke="#ffd54f" stroke-width="1.5" opacity="0.7"/>

    <!-- Outer petal layer (16 petals) -->
    <g transform="translate(100 100)" opacity="0.95">
        <use href="#petalPath" transform="scale(1.5)"/>
        <use href="#petalPath" transform="scale(1.5) rotate(22.5)"/>
        <use href="#petalPath" transform="scale(1.5) rotate(45)"/>
        <use href="#petalPath" transform="scale(1.5) rotate(67.5)"/>
        <use href="#petalPath" transform="scale(1.5) rotate(90)"/>
        <use href="#petalPath" transform="scale(1.5) rotate(112.5)"/>
        <use href="#petalPath" transform="scale(1.5) rotate(135)"/>
        <use href="#petalPath" transform="scale(1.5) rotate(157.5)"/>
        <use href="#petalPath" transform="scale(1.5) rotate(180)"/>
        <use href="#petalPath" transform="scale(1.5) rotate(202.5)"/>
        <use href="#petalPath" transform="scale(1.5) rotate(225)"/>
        <use href="#petalPath" transform="scale(1.5) rotate(247.5)"/>
        <use href="#petalPath" transform="scale(1.5) rotate(270)"/>
        <use href="#petalPath" transform="scale(1.5) rotate(292.5)"/>
        <use href="#petalPath" transform="scale(1.5) rotate(315)"/>
        <use href="#petalPath" transform="scale(1.5) rotate(337.5)"/>
    </g>

    <!-- Inner petal layer (8 petals) with enhanced stroke -->
    <g transform="translate(100 100)" opacity="1">
        <path fill="none" stroke="#ff6f00" stroke-width="3" stroke-linecap="round" d="M0-40q-10 15-8 25L0 0l8-15q2-10-8-25Z"/>
        <path fill="none" stroke="#ff6f00" stroke-width="3" stroke-linecap="round" d="M0-40q-10 15-8 25L0 0l8-15q2-10-8-25Z" transform="rotate(45)"/>
        <path fill="none" stroke="#ff6f00" stroke-width="3" stroke-linecap="round" d="M0-40q-10 15-8 25L0 0l8-15q2-10-8-25Z" transform="rotate(90)"/>
        <path fill="none" stroke="#ff6f00" stroke-width="3" stroke-linecap="round" d="M0-40q-10 15-8 25L0 0l8-15q2-10-8-25Z" transform="rotate(135)"/>
        <path fill="none" stroke="#ff6f00" stroke-width="3" stroke-linecap="round" d="M0-40q-10 15-8 25L0 0l8-15q2-10-8-25Z" transform="rotate(180)"/>
        <path fill="none" stroke="#ff6f00" stroke-width="3" stroke-linecap="round" d="M0-40q-10 15-8 25L0 0l8-15q2-10-8-25Z" transform="rotate(225)"/>
        <path fill="none" stroke="#ff6f00" stroke-width="3" stroke-linecap="round" d="M0-40q-10 15-8 25L0 0l8-15q2-10-8-25Z" transform="rotate(270)"/>
        <path fill="none" stroke="#ff6f00" stroke-width="3" stroke-linecap="round" d="M0-40q-10 15-8 25L0 0l8-15q2-10-8-25Z" transform="rotate(315)"/>
    </g>

    <!-- Decorative dots on outer circle with enhanced styling -->
    <g fill="url(#centerGlow)" filter="url(#softShadow)">
        <circle cx="100" cy="15" r="4"/>
        <circle cx="147" cy="29" r="4"/>
        <circle cx="171" cy="53" r="4"/>
        <circle cx="185" cy="100" r="4"/>
        <circle cx="171" cy="147" r="4"/>
        <circle cx="147" cy="171" r="4"/>
        <circle cx="100" cy="185" r="4"/>
        <circle cx="53" cy="171" r="4"/>
        <circle cx="29" cy="147" r="4"/>
        <circle cx="15" cy="100" r="4"/>
        <circle cx="29" cy="53" r="4"/>
        <circle cx="53" cy="29" r="4"/>
    </g>

    <!-- Inner decorative dots (between petals) -->
    <g fill="#ffd54f" opacity="0.9">
        <circle cx="100" cy="45" r="2.5"/>
        <circle cx="125" cy="55" r="2.5"/>
        <circle cx="145" cy="75" r="2.5"/>
        <circle cx="155" cy="100" r="2.5"/>
        <circle cx="145" cy="125" r="2.5"/>
        <circle cx="125" cy="145" r="2.5"/>
        <circle cx="100" cy="155" r="2.5"/>
        <circle cx="75" cy="145" r="2.5"/>
        <circle cx="55" cy="125" r="2.5"/>
        <circle cx="45" cy="100" r="2.5"/>
        <circle cx="55" cy="75" r="2.5"/>
        <circle cx="75" cy="55" r="2.5"/>
    </g>

    <!-- Center circle with enhanced glow -->
    <circle cx="100" cy="100" r="10" fill="url(#centerGlow)" stroke="#ff9800" stroke-width="2.5" filter="url(#centerGlowFilter)"/>
    <circle cx="100" cy="100" r="6" fill="#fff" opacity="0.6"/>

    <!-- Accent rings around center -->
    <circle cx="100" cy="100" r="20" fill="none" stroke="#ffd54f" stroke-width="1" opacity="0.5"/>
    <circle cx="100" cy="100" r="30" fill="none" stroke="#ff9800" stroke-width="0.5" opacity="0.4" stroke-dasharray="2,3"/>
</svg>
