<svg xmlns="http://www.w3.org/2000/svg" viewBox="0 0 200 200" aria-labelledby="kolamTitle kolamDesc" role="img">
    <title id="kolamTitle">Kolam Sunburst Mandala Pattern</title>
    <desc id="kolamDesc">Traditional South Indian decorative floor art pattern with geometric sunburst design and sacred symmetry</desc>

    <defs>
        <!-- Enhanced glow filter -->
        <filter id="kolamGlow" width="200%" height="200%" x="-50%" y="-50%">
            <feGaussianBlur in="SourceGraphic" stdDeviation="2" result="blur"/>
            <feComponentTransfer in="blur" result="glow">
                <feFuncA type="linear" slope="1.3"/>
            </feComponentTransfer>
            <feMerge>
                <feMergeNode in="glow"/>
                <feMergeNode in="SourceGraphic"/>
            </feMerge>
        </filter>

        <!-- Soft shadow for depth -->
        <filter id="lineShadow" x="-50%" y="-50%" width="200%" height="200%">
            <feGaussianBlur in="SourceAlpha" stdDeviation="0.8" result="blur"/>
            <feOffset in="blur" dx="0.5" dy="0.5" result="offsetBlur"/>
            <feComponentTransfer in="offsetBlur" result="shadow">
                <feFuncA type="linear" slope="0.25"/>
            </feComponentTransfer>
            <feMerge>
                <feMergeNode in="shadow"/>
                <feMergeNode in="SourceGraphic"/>
            </feMerge>
        </filter>

        <!-- Gradient for lines -->
        <linearGradient id="lineGradient" x1="0%" y1="0%" x2="100%" y2="100%">
            <stop offset="0%" style="stop-color:#fffacd;stop-opacity:1"/>
            <stop offset="50%" style="stop-color:#f5deb3;stop-opacity:1"/>
            <stop offset="100%" style="stop-color:#deb887;stop-opacity:0.9"/>
        </linearGradient>

        <!-- Radial gradient for center -->
        <radialGradient id="centerGradient" cx="50%" cy="50%" r="50%">
            <stop offset="0%" style="stop-color:#fff8dc;stop-opacity:1"/>
            <stop offset="50%" style="stop-color:#f5deb3;stop-opacity:1"/>
            <stop offset="100%" style="stop-color:#deb887;stop-opacity:1"/>
        </radialGradient>
    </defs>

    <!-- Background subtle glow -->
    <circle cx="100" cy="100" r="80" fill="url(#lineGradient)" opacity="0.08" filter="url(#kolamGlow)"/>

    <!-- Main kolam pattern -->
    <g fill="none" stroke="url(#lineGradient)" stroke-linecap="round" filter="url(#lineShadow)">
        <!-- Center dot with glow -->
        <circle cx="100" cy="100" r="3" fill="url(#centerGradient)" stroke="none" filter="url(#kolamGlow)"/>
        <circle cx="100" cy="100" r="2" fill="#fffacd" stroke="none" opacity="0.9"/>

        <!-- Concentric circles with varying opacity -->
        <circle cx="100" cy="100" r="12" stroke-width="2" opacity="1"/>
        <circle cx="100" cy="100" r="11" stroke="#fffacd" stroke-width="0.5" opacity="0.6"/>

        <circle cx="100" cy="100" r="22" stroke-width="2" opacity="0.95"/>
        <circle cx="100" cy="100" r="21" stroke="#fffacd" stroke-width="0.5" opacity="0.55"/>

        <circle cx="100" cy="100" r="32" stroke-width="2" opacity="0.9"/>
        <circle cx="100" cy="100" r="31" stroke="#fffacd" stroke-width="0.5" opacity="0.5"/>

        <circle cx="100" cy="100" r="42" stroke-width="2" opacity="0.85"/>
        <circle cx="100" cy="100" r="41" stroke="#fffacd" stroke-width="0.5" opacity="0.45"/>

        <circle cx="100" cy="100" r="52" stroke-width="2" opacity="0.8"/>
        <circle cx="100" cy="100" r="51" stroke="#fffacd" stroke-width="0.5" opacity="0.4"/>

        <circle cx="100" cy="100" r="62" stroke-width="2" opacity="0.75"/>
        <circle cx="100" cy="100" r="61" stroke="#fffacd" stroke-width="0.5" opacity="0.35"/>

        <circle cx="100" cy="100" r="72" stroke-width="1.8" opacity="0.7"/>

        <!-- Radiating sunburst lines (8 primary directions) -->
        <g stroke-width="2.5" opacity="0.9">
            <path d="M100 85q-12-12 0-50"/>
            <path d="M100 85q12-12 0-50"/>
            <path d="M110.6 89.4Q120 85 145 60"/>
            <path d="M110.6 89.4Q105 80 145 60"/>
            <path d="M115 100q12 12 50 0"/>
            <path d="M115 100q12-12 50 0"/>
            <path d="M110.6 110.6Q120 115 145 140"/>
            <path d="M110.6 110.6Q105 120 145 140"/>
            <path d="M100 115q12 12 0 50"/>
            <path d="M100 115q-12 12 0 50"/>
            <path d="M89.4 110.6Q80 115 55 140"/>
            <path d="M89.4 110.6Q95 120 55 140"/>
            <path d="M85 100q-12 12-50 0"/>
            <path d="M85 100q-12-12-50 0"/>
            <path d="M89.4 89.4Q80 85 55 60"/>
            <path d="M89.4 89.4Q95 80 55 60"/>
        </g>

        <!-- Inner detail lines -->
        <g stroke-width="1.5" opacity="0.75">
            <path d="M100 88v-8"/>
            <path d="M107 91l5.5-5.5"/>
            <path d="M112 100h8"/>
            <path d="M107 109l5.5 5.5"/>
            <path d="M100 112v8"/>
            <path d="M93 109l-5.5 5.5"/>
            <path d="M88 100h-8"/>
            <path d="M93 91l-5.5-5.5"/>
        </g>
    </g>

    <!-- Decorative dots at ray endpoints -->
    <g fill="url(#centerGradient)" filter="url(#kolamGlow)">
        <circle cx="100" cy="30" r="3.5" opacity="0.95"/>
        <circle cx="148" cy="52" r="3.5" opacity="0.95"/>
        <circle cx="170" cy="100" r="3.5" opacity="0.95"/>
        <circle cx="148" cy="148" r="3.5" opacity="0.95"/>
        <circle cx="100" cy="170" r="3.5" opacity="0.95"/>
        <circle cx="52" cy="148" r="3.5" opacity="0.95"/>
        <circle cx="30" cy="100" r="3.5" opacity="0.95"/>
        <circle cx="52" cy="52" r="3.5" opacity="0.95"/>
    </g>

    <!-- Inner highlight dots -->
    <g fill="#fffacd" opacity="0.9">
        <circle cx="100" cy="30" r="2"/>
        <circle cx="148" cy="52" r="2"/>
        <circle cx="170" cy="100" r="2"/>
        <circle cx="148" cy="148" r="2"/>
        <circle cx="100" cy="170" r="2"/>
        <circle cx="52" cy="148" r="2"/>
        <circle cx="30" cy="100" r="2"/>
        <circle cx="52" cy="52" r="2"/>
    </g>

    <!-- Central cross pattern with enhanced detail -->
    <g stroke="url(#lineGradient)" stroke-width="1.5" opacity="0.8" filter="url(#lineShadow)">
        <path d="M90 100h20"/>
        <path d="M100 90v20"/>
        <path d="M93 93l14 14"/>
        <path d="M107 93l-14 14"/>
    </g>

    <!-- Accent decorative elements -->
    <g fill="none" stroke="#fffacd" stroke-width="0.8" opacity="0.5">
        <circle cx="100" cy="100" r="16"/>
        <circle cx="100" cy="100" r="26"/>
        <circle cx="100" cy="100" r="36"/>
        <circle cx="100" cy="100" r="46"/>
        <circle cx="100" cy="100" r="56"/>
        <circle cx="100" cy="100" r="66"/>
    </g>
</svg>
