<svg viewBox="0 0 200 200" xmlns="http://www.w3.org/2000/svg">
  <title>Kolam Sunburst Mandala Pattern</title>
  <defs>
    <!-- Glow filter for kolam lines -->
    <filter id="kolam-glow" x="-50%" y="-50%" width="200%" height="200%">
      <feGaussianBlur stdDeviation="1.5" result="coloredBlur"/>
      <feMerge>
        <feMergeNode in="coloredBlur"/>
        <feMergeNode in="SourceGraphic"/>
      </feMerge>
    </filter>
  </defs>

  <g filter="url(#kolam-glow)" stroke="#F5F5DC" stroke-width="1.5" fill="none" stroke-linecap="round">
    <!-- Center dot -->
    <circle cx="100" cy="100" r="2" fill="#F5F5DC" stroke="none"/>

    <!-- Concentric circles (drawn outward) -->
    <circle cx="100" cy="100" r="10" opacity="0.95"/>
    <circle cx="100" cy="100" r="20" opacity="0.9"/>
    <circle cx="100" cy="100" r="30" opacity="0.85"/>
    <circle cx="100" cy="100" r="40" opacity="0.8"/>
    <circle cx="100" cy="100" r="50" opacity="0.75"/>
    <circle cx="100" cy="100" r="60" opacity="0.7"/>

    <!-- 8-fold sunburst petals radiating outward -->
    <!-- Petal 1 (0 degrees - top) -->
    <path d="M 100 85 Q 90 75, 100 40" opacity="0.85"/>
    <path d="M 100 85 Q 110 75, 100 40" opacity="0.85"/>

    <!-- Petal 2 (45 degrees) -->
    <path d="M 110.6 89.4 Q 117 82, 142 58" opacity="0.85"/>
    <path d="M 110.6 89.4 Q 103 82, 142 58" opacity="0.85"/>

    <!-- Petal 3 (90 degrees - right) -->
    <path d="M 115 100 Q 125 90, 160 100" opacity="0.85"/>
    <path d="M 115 100 Q 125 110, 160 100" opacity="0.85"/>

    <!-- Petal 4 (135 degrees) -->
    <path d="M 110.6 110.6 Q 117 118, 142 142" opacity="0.85"/>
    <path d="M 110.6 110.6 Q 103 118, 142 142" opacity="0.85"/>

    <!-- Petal 5 (180 degrees - bottom) -->
    <path d="M 100 115 Q 90 125, 100 160" opacity="0.85"/>
    <path d="M 100 115 Q 110 125, 100 160" opacity="0.85"/>

    <!-- Petal 6 (225 degrees) -->
    <path d="M 89.4 110.6 Q 82 118, 58 142" opacity="0.85"/>
    <path d="M 89.4 110.6 Q 82 103, 58 142" opacity="0.85"/>

    <!-- Petal 7 (270 degrees - left) -->
    <path d="M 85 100 Q 75 90, 40 100" opacity="0.85"/>
    <path d="M 85 100 Q 75 110, 40 100" opacity="0.85"/>

    <!-- Petal 8 (315 degrees) -->
    <path d="M 89.4 89.4 Q 82 82, 58 58" opacity="0.85"/>
    <path d="M 89.4 89.4 Q 82 97, 58 58" opacity="0.85"/>

    <!-- Decorative dots at petal tips -->
    <circle cx="100" cy="35" r="2.5" fill="#F5F5DC" opacity="0.9" stroke="none"/>
    <circle cx="145" cy="55" r="2.5" fill="#F5F5DC" opacity="0.9" stroke="none"/>
    <circle cx="165" cy="100" r="2.5" fill="#F5F5DC" opacity="0.9" stroke="none"/>
    <circle cx="145" cy="145" r="2.5" fill="#F5F5DC" opacity="0.9" stroke="none"/>
    <circle cx="100" cy="165" r="2.5" fill="#F5F5DC" opacity="0.9" stroke="none"/>
    <circle cx="55" cy="145" r="2.5" fill="#F5F5DC" opacity="0.9" stroke="none"/>
    <circle cx="35" cy="100" r="2.5" fill="#F5F5DC" opacity="0.9" stroke="none"/>
    <circle cx="55" cy="55" r="2.5" fill="#F5F5DC" opacity="0.9" stroke="none"/>

    <!-- Inner decorative elements -->
    <path d="M 90 100 L 110 100" opacity="0.7" stroke-width="1"/>
    <path d="M 100 90 L 100 110" opacity="0.7" stroke-width="1"/>
    <path d="M 93 93 L 107 107" opacity="0.7" stroke-width="1"/>
    <path d="M 107 93 L 93 107" opacity="0.7" stroke-width="1"/>
  </g>
</svg>
