<svg viewBox="0 0 100 120" xmlns="http://www.w3.org/2000/svg">
  <title>Traditional Pongal Pot</title>
  <defs>
    <!-- Terracotta texture gradient -->
    <linearGradient id="terracotta-gradient" x1="0%" y1="0%" x2="100%" y2="100%">
      <stop offset="0%" style="stop-color:#E07A5F;stop-opacity:1" />
      <stop offset="50%" style="stop-color:#D2691E;stop-opacity:1" />
      <stop offset="100%" style="stop-color:#C05A40;stop-opacity:1" />
    </linearGradient>

    <!-- Pattern for decorative dots -->
    <pattern id="dot-pattern" x="0" y="0" width="10" height="10" patternUnits="userSpaceOnUse">
      <circle cx="5" cy="5" r="1.5" fill="#FF6B35" opacity="0.5"/>
    </pattern>
  </defs>

  <!-- Pot body -->
  <path
    d="M 30 40 L 25 95 Q 25 105, 35 105 L 65 105 Q 75 105, 75 95 L 70 40 Z"
    fill="url(#terracotta-gradient)"
    stroke="#8B4513"
    stroke-width="1.5"
  />

  <!-- Decorative red band (top) -->
  <rect
    x="28"
    y="43"
    width="44"
    height="3"
    fill="#FF6B35"
    opacity="0.9"
  />

  <!-- Decorative yellow band -->
  <rect
    x="28"
    y="49"
    width="44"
    height="2.5"
    fill="#FDEE00"
    opacity="0.8"
  />

  <!-- Decorative dot pattern area -->
  <rect
    x="28"
    y="55"
    width="44"
    height="35"
    fill="url(#dot-pattern)"
  />

  <!-- Horizontal stripe pattern -->
  <rect x="28" y="67" width="44" height="1.5" fill="#FF8C42" opacity="0.6"/>
  <rect x="28" y="75" width="44" height="1.5" fill="#FF8C42" opacity="0.6"/>
  <rect x="28" y="83" width="44" height="1.5" fill="#FF8C42" opacity="0.6"/>

  <!-- Pot rim (top) -->
  <ellipse
    cx="50"
    cy="40"
    rx="20"
    ry="4"
    fill="#D2691E"
  />
  <ellipse
    cx="50"
    cy="40"
    rx="20"
    ry="4"
    fill="none"
    stroke="#8B4513"
    stroke-width="1.5"
  />

  <!-- Rim highlight -->
  <ellipse
    cx="50"
    cy="39.5"
    rx="18"
    ry="3"
    fill="#E89B7E"
    opacity="0.6"
  />

  <!-- Bottom shadow -->
  <ellipse
    cx="50"
    cy="105"
    rx="25"
    ry="3"
    fill="#000000"
    opacity="0.2"
  />
</svg>
