<svg xmlns="http://www.w3.org/2000/svg" viewBox="0 0 60 180" aria-labelledby="sugarcaneTitle sugarcaneDesc" role="img">
    <title id="sugarcaneTitle">Sugarcane Stalk</title>
    <desc id="sugarcaneDesc">Traditional sugarcane plant with bamboo-like segments and green leaves, symbol of prosperity and sweetness</desc>

    <defs>
        <!-- Enhanced stalk gradient with cylindrical effect -->
        <linearGradient id="stalkGradient" x1="0%" x2="100%" y1="0%" y2="0%">
            <stop offset="0%" style="stop-color:#685640;stop-opacity:1"/>
            <stop offset="15%" style="stop-color:#7a6952;stop-opacity:1"/>
            <stop offset="50%" style="stop-color:#9b8465;stop-opacity:1"/>
            <stop offset="85%" style="stop-color:#8b7355;stop-opacity:1"/>
            <stop offset="100%" style="stop-color:#6b5340;stop-opacity:1"/>
        </linearGradient>

        <!-- Node ring gradient -->
        <radialGradient id="nodeGradient" cx="50%" cy="50%" r="50%">
            <stop offset="0%" style="stop-color:#5d4a36;stop-opacity:0.9"/>
            <stop offset="60%" style="stop-color:#6b5340;stop-opacity:1"/>
            <stop offset="100%" style="stop-color:#4a3828;stop-opacity:1"/>
        </radialGradient>

        <!-- Leaf gradient with more vibrance -->
        <linearGradient id="leafGradient" x1="0%" x2="100%" y1="0%" y2="100%">
            <stop offset="0%" style="stop-color:#4ade80;stop-opacity:1"/>
            <stop offset="40%" style="stop-color:#32cd32;stop-opacity:1"/>
            <stop offset="100%" style="stop-color:#228b22;stop-opacity:1"/>
        </linearGradient>

        <!-- Shadow filter -->
        <filter id="segmentShadow" x="-30%" y="-30%" width="160%" height="160%">
            <feGaussianBlur in="SourceAlpha" stdDeviation="1" result="blur"/>
            <feOffset in="blur" dx="1" dy="1" result="offsetBlur"/>
            <feComponentTransfer in="offsetBlur" result="shadow">
                <feFuncA type="linear" slope="0.35"/>
            </feComponentTransfer>
            <feMerge>
                <feMergeNode in="shadow"/>
                <feMergeNode in="SourceGraphic"/>
            </feMerge>
        </filter>

        <!-- Leaf filter for depth -->
        <filter id="leafShadow" x="-20%" y="-20%" width="140%" height="140%">
            <feGaussianBlur in="SourceAlpha" stdDeviation="0.8" result="blur"/>
            <feOffset in="blur" dx="0.5" dy="0.5" result="offsetBlur"/>
            <feComponentTransfer in="offsetBlur" result="shadow">
                <feFuncA type="linear" slope="0.4"/>
            </feComponentTransfer>
            <feMerge>
                <feMergeNode in="shadow"/>
                <feMergeNode in="SourceGraphic"/>
            </feMerge>
        </filter>
    </defs>

    <!-- Ground shadow -->
    <ellipse cx="30" cy="178" fill="#000" opacity="0.2" rx="14" ry="2.5"/>

    <!-- Sugarcane segments with enhanced depth -->
    <g filter="url(#segmentShadow)">
        <!-- Bottom segment -->
        <rect width="17" height="29" x="21.5" y="149" fill="url(#stalkGradient)" rx="2.5"/>
        <ellipse cx="30" cy="150" fill="url(#nodeGradient)" rx="9.5" ry="4.5"/>
        <ellipse cx="30" cy="149" fill="#8b7355" opacity="0.4" rx="7" ry="2.5"/>

        <!-- Second segment -->
        <rect width="17" height="29" x="21.5" y="119" fill="url(#stalkGradient)" rx="2.5"/>
        <ellipse cx="30" cy="120" fill="url(#nodeGradient)" rx="9.5" ry="4.5"/>
        <ellipse cx="30" cy="119" fill="#8b7355" opacity="0.4" rx="7" ry="2.5"/>

        <!-- Third segment -->
        <rect width="17" height="29" x="21.5" y="89" fill="url(#stalkGradient)" rx="2.5"/>
        <ellipse cx="30" cy="90" fill="url(#nodeGradient)" rx="9.5" ry="4.5"/>
        <ellipse cx="30" cy="89" fill="#8b7355" opacity="0.4" rx="7" ry="2.5"/>

        <!-- Fourth segment -->
        <rect width="17" height="29" x="21.5" y="59" fill="url(#stalkGradient)" rx="2.5"/>
        <ellipse cx="30" cy="60" fill="url(#nodeGradient)" rx="9.5" ry="4.5"/>
        <ellipse cx="30" cy="59" fill="#8b7355" opacity="0.4" rx="7" ry="2.5"/>

        <!-- Top segment -->
        <rect width="17" height="29" x="21.5" y="29" fill="url(#stalkGradient)" rx="2.5"/>
        <ellipse cx="30" cy="30" fill="url(#nodeGradient)" rx="9.5" ry="4.5"/>
        <ellipse cx="30" cy="29" fill="#8b7355" opacity="0.4" rx="7" ry="2.5"/>
    </g>

    <!-- Vertical lines for texture -->
    <g stroke="#6b5340" stroke-width="0.6" opacity="0.5">
        <path d="M24 35v140"/>
        <path d="M27 35v140" opacity="0.3"/>
        <path d="M33 35v140" opacity="0.3"/>
        <path d="M36 35v140"/>
    </g>

    <!-- Leaves with enhanced detail -->
    <g filter="url(#leafShadow)">
        <!-- Top leaves (pair 1) -->
        <path fill="url(#leafGradient)" stroke="#1a6b1a" stroke-width="0.6" d="M30 35Q10 25 2 13l-1 1q10 14 29 23Z" opacity="0.95"/>
        <path fill="none" stroke="#4ade80" stroke-width="0.4" d="M28 34Q12 26 5 17" opacity="0.6"/>

        <path fill="url(#leafGradient)" stroke="#1a6b1a" stroke-width="0.6" d="M30 35q20-10 28-22l1 1Q47 27 30 37Z" opacity="0.95"/>
        <path fill="none" stroke="#4ade80" stroke-width="0.4" d="M32 34q14-8 23-17" opacity="0.6"/>

        <!-- Middle leaves (pair 2) -->
        <path fill="url(#leafGradient)" stroke="#1a6b1a" stroke-width="0.6" d="M30 65Q12 55 4 43l-1 1q10 14 27 23Z" opacity="0.9"/>
        <path fill="none" stroke="#4ade80" stroke-width="0.4" d="M28 64Q14 56 7 47" opacity="0.5"/>

        <path fill="url(#leafGradient)" stroke="#1a6b1a" stroke-width="0.6" d="M30 65q18-10 26-22l1 1Q45 57 30 67Z" opacity="0.9"/>
        <path fill="none" stroke="#4ade80" stroke-width="0.4" d="M32 64q14-8 21-17" opacity="0.5"/>

        <!-- Lower leaves (pair 3) -->
        <path fill="url(#leafGradient)" stroke="#1a6b1a" stroke-width="0.6" d="M30 95Q15 85 7 73l-1 1q10 14 24 23Z" opacity="0.85"/>
        <path fill="none" stroke="#4ade80" stroke-width="0.4" d="M28 94Q16 86 9 77" opacity="0.4"/>

        <path fill="url(#leafGradient)" stroke="#1a6b1a" stroke-width="0.6" d="M30 95q15-10 23-22l1 1Q42 87 30 97Z" opacity="0.85"/>
        <path fill="none" stroke="#4ade80" stroke-width="0.4" d="M32 94q12-8 19-17" opacity="0.4"/>
    </g>

    <!-- Highlight stripes on segments -->
    <g stroke="#9b8465" stroke-width="0.8" opacity="0.3">
        <line x1="25" x2="25" y1="152" y2="175"/>
        <line x1="25" x2="25" y1="122" y2="145"/>
        <line x1="25" x2="25" y1="92" y2="115"/>
        <line x1="25" x2="25" y1="62" y2="85"/>
        <line x1="25" x2="25" y1="32" y2="55"/>
    </g>
</svg>
