<svg xmlns="http://www.w3.org/2000/svg" viewBox="0 0 60 180">
    <title>Sugarcane Stalk</title>
    <defs>
        <linearGradient id="a" x1="0%" x2="100%" y1="0%" y2="0%">
            <stop offset="0%" style="stop-color:#7a6952;stop-opacity:1"/>
            <stop offset="50%" style="stop-color:#8b7355;stop-opacity:1"/>
            <stop offset="100%" style="stop-color:#9b8465;stop-opacity:1"/>
        </linearGradient>
        <linearGradient id="b" x1="0%" x2="100%" y1="0%" y2="100%">
            <stop offset="0%" style="stop-color:#32cd32;stop-opacity:1"/>
            <stop offset="100%" style="stop-color:#228b22;stop-opacity:1"/>
        </linearGradient>
    </defs>
    <rect width="16" height="28" x="22" y="150" fill="url(#a)" rx="2"/>
    <ellipse cx="30" cy="150" fill="#6b5340" opacity=".8" rx="9" ry="4"/>
    <rect width="16" height="28" x="22" y="120" fill="url(#a)" rx="2"/>
    <ellipse cx="30" cy="120" fill="#6b5340" opacity=".8" rx="9" ry="4"/>
    <rect width="16" height="28" x="22" y="90" fill="url(#a)" rx="2"/>
    <ellipse cx="30" cy="90" fill="#6b5340" opacity=".8" rx="9" ry="4"/>
    <rect width="16" height="28" x="22" y="60" fill="url(#a)" rx="2"/>
    <ellipse cx="30" cy="60" fill="#6b5340" opacity=".8" rx="9" ry="4"/>
    <rect width="16" height="28" x="22" y="30" fill="url(#a)" rx="2"/>
    <ellipse cx="30" cy="30" fill="#6b5340" opacity=".8" rx="9" ry="4"/>
    <path fill="url(#b)" stroke="#1a6b1a" stroke-width=".5" d="M30 35Q10 25 3 15l-1 1q10 12 28 21Z" opacity=".9"/>
    <path fill="url(#b)" stroke="#1a6b1a" stroke-width=".5" d="M30 35q20-10 27-20l1 1Q48 28 30 37Z" opacity=".9"/>
    <path fill="url(#b)" stroke="#1a6b1a" stroke-width=".5" d="M30 65Q12 55 5 45l-1 1q10 12 26 21Z" opacity=".85"/>
    <path fill="url(#b)" stroke="#1a6b1a" stroke-width=".5" d="M30 65q18-10 25-20l1 1Q46 58 30 67Z" opacity=".85"/>
    <path fill="url(#b)" stroke="#1a6b1a" stroke-width=".5" d="M30 95Q15 85 8 75l-1 1q10 12 23 21Z" opacity=".8"/>
    <path fill="url(#b)" stroke="#1a6b1a" stroke-width=".5" d="M30 95q15-10 22-20l1 1Q43 88 30 97Z" opacity=".8"/>
    <path stroke="#6b5340" stroke-width=".5" d="M24 35v140M36 35v140" opacity=".4"/>
    <ellipse cx="30" cy="178" opacity=".15" rx="12" ry="2"/>
</svg>
