<svg xmlns="http://www.w3.org/2000/svg" viewBox="0 0 200 200" aria-labelledby="sunTitle sunDesc" role="img">
    <title id="sunTitle">Rising Sun with Rays</title>
    <desc id="sunDesc">A vibrant rising sun with golden rays representing new beginnings, warmth and harvest celebration</desc>

    <defs>
        <!-- Enhanced sun core gradient -->
        <radialGradient id="sunCore" cx="50%" cy="50%" r="50%">
            <stop offset="0%" style="stop-color:#ffffff;stop-opacity:1"/>
            <stop offset="20%" style="stop-color:#ffeb3b;stop-opacity:1"/>
            <stop offset="60%" style="stop-color:#ff8c42;stop-opacity:1"/>
            <stop offset="100%" style="stop-color:#ff6b35;stop-opacity:0.9"/>
        </radialGradient>

        <!-- Ray gradient with more depth -->
        <linearGradient id="rayGradient" x1="0%" x2="0%" y1="0%" y2="100%">
            <stop offset="0%" style="stop-color:#fff9c4;stop-opacity:0.95"/>
            <stop offset="40%" style="stop-color:#ffeb3b;stop-opacity:0.85"/>
            <stop offset="100%" style="stop-color:#ff8c42;stop-opacity:0.5"/>
        </linearGradient>

        <!-- Secondary ray gradient -->
        <linearGradient id="rayGradientAlt" x1="0%" x2="0%" y1="0%" y2="100%">
            <stop offset="0%" style="stop-color:#ffd54f;stop-opacity:0.9"/>
            <stop offset="50%" style="stop-color:#ffa726;stop-opacity:0.75"/>
            <stop offset="100%" style="stop-color:#ff7043;stop-opacity:0.4"/>
        </linearGradient>

        <!-- Enhanced glow filter -->
        <filter id="sunGlow" width="200%" height="200%" x="-50%" y="-50%">
            <feGaussianBlur in="SourceGraphic" stdDeviation="5" result="blur"/>
            <feComponentTransfer in="blur" result="glow">
                <feFuncA type="linear" slope="1.8"/>
            </feComponentTransfer>
            <feMerge>
                <feMergeNode in="glow"/>
                <feMergeNode in="glow"/>
                <feMergeNode in="SourceGraphic"/>
            </feMerge>
        </filter>

        <!-- Ray shadow filter -->
        <filter id="rayShadow" x="-20%" y="-20%" width="140%" height="140%">
            <feGaussianBlur in="SourceAlpha" stdDeviation="1" result="blur"/>
            <feOffset in="blur" dx="0" dy="1" result="offsetBlur"/>
            <feComponentTransfer in="offsetBlur" result="shadow">
                <feFuncA type="linear" slope="0.3"/>
            </feComponentTransfer>
            <feMerge>
                <feMergeNode in="shadow"/>
                <feMergeNode in="SourceGraphic"/>
            </feMerge>
        </filter>
    </defs>

    <!-- Ambient glow backdrop -->
    <circle cx="100" cy="100" r="75" fill="#ffeb3b" opacity="0.1" filter="url(#sunGlow)"/>

    <!-- Sun rays with alternating sizes and enhanced gradients -->
    <g filter="url(#rayShadow)">
        <!-- Primary rays (longer) -->
        <rect width="9" height="50" x="95.5" y="12" fill="url(#rayGradient)" opacity="0.85" rx="2.5"/>
        <rect width="9" height="50" x="95.5" y="12" fill="url(#rayGradient)" opacity="0.85" rx="2.5" transform="rotate(60 100 100)"/>
        <rect width="9" height="50" x="95.5" y="12" fill="url(#rayGradient)" opacity="0.85" rx="2.5" transform="rotate(120 100 100)"/>
        <rect width="9" height="50" x="95.5" y="12" fill="url(#rayGradient)" opacity="0.85" rx="2.5" transform="rotate(180 100 100)"/>
        <rect width="9" height="50" x="95.5" y="12" fill="url(#rayGradient)" opacity="0.85" rx="2.5" transform="rotate(240 100 100)"/>
        <rect width="9" height="50" x="95.5" y="12" fill="url(#rayGradient)" opacity="0.85" rx="2.5" transform="rotate(300 100 100)"/>

        <!-- Secondary rays (medium) -->
        <rect width="7" height="40" x="96.5" y="20" fill="url(#rayGradientAlt)" opacity="0.75" rx="2" transform="rotate(30 100 100)"/>
        <rect width="7" height="40" x="96.5" y="20" fill="url(#rayGradientAlt)" opacity="0.75" rx="2" transform="rotate(90 100 100)"/>
        <rect width="7" height="40" x="96.5" y="20" fill="url(#rayGradientAlt)" opacity="0.75" rx="2" transform="rotate(150 100 100)"/>
        <rect width="7" height="40" x="96.5" y="20" fill="url(#rayGradientAlt)" opacity="0.75" rx="2" transform="rotate(210 100 100)"/>
        <rect width="7" height="40" x="96.5" y="20" fill="url(#rayGradientAlt)" opacity="0.75" rx="2" transform="rotate(270 100 100)"/>
        <rect width="7" height="40" x="96.5" y="20" fill="url(#rayGradientAlt)" opacity="0.75" rx="2" transform="rotate(330 100 100)"/>

        <!-- Tertiary rays (shorter accent rays) -->
        <rect width="5" height="28" x="97.5" y="30" fill="url(#rayGradient)" opacity="0.65" rx="1.5" transform="rotate(15 100 100)"/>
        <rect width="5" height="28" x="97.5" y="30" fill="url(#rayGradient)" opacity="0.65" rx="1.5" transform="rotate(45 100 100)"/>
        <rect width="5" height="28" x="97.5" y="30" fill="url(#rayGradient)" opacity="0.65" rx="1.5" transform="rotate(75 100 100)"/>
        <rect width="5" height="28" x="97.5" y="30" fill="url(#rayGradient)" opacity="0.65" rx="1.5" transform="rotate(105 100 100)"/>
        <rect width="5" height="28" x="97.5" y="30" fill="url(#rayGradient)" opacity="0.65" rx="1.5" transform="rotate(135 100 100)"/>
        <rect width="5" height="28" x="97.5" y="30" fill="url(#rayGradient)" opacity="0.65" rx="1.5" transform="rotate(165 100 100)"/>
        <rect width="5" height="28" x="97.5" y="30" fill="url(#rayGradient)" opacity="0.65" rx="1.5" transform="rotate(195 100 100)"/>
        <rect width="5" height="28" x="97.5" y="30" fill="url(#rayGradient)" opacity="0.65" rx="1.5" transform="rotate(225 100 100)"/>
        <rect width="5" height="28" x="97.5" y="30" fill="url(#rayGradient)" opacity="0.65" rx="1.5" transform="rotate(255 100 100)"/>
        <rect width="5" height="28" x="97.5" y="30" fill="url(#rayGradient)" opacity="0.65" rx="1.5" transform="rotate(285 100 100)"/>
        <rect width="5" height="28" x="97.5" y="30" fill="url(#rayGradient)" opacity="0.65" rx="1.5" transform="rotate(315 100 100)"/>
        <rect width="5" height="28" x="97.5" y="30" fill="url(#rayGradient)" opacity="0.65" rx="1.5" transform="rotate(345 100 100)"/>
    </g>

    <!-- Sun body with enhanced layers -->
    <circle cx="100" cy="100" r="45" fill="url(#sunCore)" filter="url(#sunGlow)"/>
    <circle cx="100" cy="100" r="38" fill="#ff8c42" opacity="0.7"/>
    <circle cx="100" cy="100" r="32" fill="#ffeb3b" opacity="0.8"/>

    <!-- Highlight spots for dimension -->
    <ellipse cx="95" cy="92" fill="#fff9c4" opacity="0.85" rx="18" ry="20"/>
    <ellipse cx="92" cy="88" fill="#ffffff" opacity="0.7" rx="12" ry="14"/>
    <circle cx="88" cy="85" r="6" fill="#fff" opacity="0.9"/>

    <!-- Subtle corona ring -->
    <circle cx="100" cy="100" r="48" fill="none" stroke="#ffeb3b" stroke-width="1.5" opacity="0.4"/>
</svg>
