<svg xmlns="http://www.w3.org/2000/svg" viewBox="0 0 200 200">
    <title>Rising Sun with Rays</title>
    <defs>
        <radialGradient id="b" cx="50%" cy="50%" r="50%">
            <stop offset="0%" style="stop-color:#ffeb3b;stop-opacity:1"/>
            <stop offset="50%" style="stop-color:#ff8c42;stop-opacity:1"/>
            <stop offset="100%" style="stop-color:#ff6b35;stop-opacity:.8"/>
        </radialGradient>
        <linearGradient id="a" x1="0%" x2="0%" y1="0%" y2="100%">
            <stop offset="0%" style="stop-color:#ffeb3b;stop-opacity:.8"/>
            <stop offset="100%" style="stop-color:#ff8c42;stop-opacity:.4"/>
        </linearGradient>
        <filter id="c" width="200%" height="200%" x="-50%" y="-50%">
            <feGaussianBlur result="coloredBlur" stdDeviation="4"/>
            <feMerge>
                <feMergeNode in="coloredBlur"/>
                <feMergeNode in="SourceGraphic"/>
            </feMerge>
        </filter>
    </defs>
    <g fill="url(#a)">
        <rect width="8" height="45" x="96" y="15" opacity=".7" rx="2"/>
        <rect width="6" height="35" x="96" y="25" opacity=".65" rx="2" transform="rotate(30 100 100)"/>
        <rect width="8" height="45" x="96" y="15" opacity=".7" rx="2" transform="rotate(60 100 100)"/>
        <rect width="6" height="35" x="96" y="25" opacity=".65" rx="2" transform="rotate(90 100 100)"/>
        <rect width="8" height="45" x="96" y="15" opacity=".7" rx="2" transform="rotate(120 100 100)"/>
        <rect width="6" height="35" x="96" y="25" opacity=".65" rx="2" transform="rotate(150 100 100)"/>
        <rect width="8" height="45" x="96" y="15" opacity=".7" rx="2" transform="rotate(180 100 100)"/>
        <rect width="6" height="35" x="96" y="25" opacity=".65" rx="2" transform="rotate(210 100 100)"/>
        <rect width="8" height="45" x="96" y="15" opacity=".7" rx="2" transform="rotate(240 100 100)"/>
        <rect width="6" height="35" x="96" y="25" opacity=".65" rx="2" transform="rotate(270 100 100)"/>
        <rect width="8" height="45" x="96" y="15" opacity=".7" rx="2" transform="rotate(300 100 100)"/>
        <rect width="6" height="35" x="96" y="25" opacity=".65" rx="2" transform="rotate(330 100 100)"/>
    </g>
    <circle cx="100" cy="100" r="40" fill="url(#b)" filter="url(#c)"/>
    <circle cx="100" cy="100" r="35" fill="#ff8c42" opacity=".6"/>
    <circle cx="95" cy="95" r="15" fill="#ffeb3b" opacity=".8"/>
    <circle cx="90" cy="90" r="8" fill="#fff" opacity=".6"/>
</svg>
